<svg width="26" height="18" viewBox="0 0 26 18" fill="none" xmlns="http://www.w3.org/2000/svg">
<path d="M0.811208 14.4178C0.694963 14.1578 0.53997 13.7425 0.444238 13.435C-0.114196 11.6344 -0.139269 9.77034 0.330272 7.98239C0.847678 6.02008 1.8369 4.52061 3.1156 3.75343C4.72252 2.79288 6.49812 2.97992 8.03894 4.25114C9.01677 5.031 9.70968 6.23565 10.2362 7.94118C10.3023 8.15992 10.3616 8.39134 10.4208 8.59105L0.811208 14.4178ZM4.02049 6.64776C2.87855 7.32934 2.29049 8.8193 2.41357 10.5629L7.24574 7.66855C6.41378 6.31173 5.33338 5.86157 4.02049 6.64776ZM7.84748 12.9436C7.8452 12.9436 7.8452 12.9468 7.8452 12.9468L7.74491 12.8517C7.45543 13.5016 7.00641 14.031 6.43886 14.3734C5.35846 15.0264 4.35783 14.8584 3.63757 13.9803L3.57147 14.1198C3.57147 14.1198 3.57147 14.1166 3.56919 14.1166L2.34291 16.6685C2.64834 16.9634 2.97429 17.2106 3.31618 17.4104C4.6701 18.1934 6.05593 18.1553 7.42124 17.3311C8.40819 16.7351 9.18316 15.8285 9.71196 14.6777L7.84748 12.9436ZM13.7783 0V14.1832L15.3647 15.0771L14.4643 18L12.7138 16.9856C12.3218 16.7478 12.0528 16.3864 11.8522 15.9775C11.6585 15.5622 11.5149 14.9884 11.5149 14.2212V0H13.7783ZM17.8856 10.5724C17.8856 9.36456 18.2708 8.28038 18.8771 7.54491L17.2497 5.02149C16.1465 6.3783 15.4513 8.35963 15.4513 10.566C15.449 12.7756 16.1442 14.7601 17.2451 16.1169L18.8703 13.5935C18.2663 12.8549 17.8856 11.777 17.8856 10.5724ZM20.7758 14.5953C20.4567 14.5953 20.1467 14.5192 19.8595 14.3861L19.0823 17.5974C19.6133 17.8447 20.1809 17.981 20.7735 17.981C23.3491 17.9841 25.4985 15.4417 25.9977 12.0655L23.609 11.3871C23.3377 13.2226 22.173 14.5985 20.7758 14.5953ZM20.7826 3.16379C20.1923 3.16379 19.6247 3.29694 19.0937 3.54104L19.8641 6.75555C20.1535 6.6224 20.4612 6.54949 20.7803 6.54949C22.1799 6.55266 23.3469 7.93484 23.6113 9.77351L26 9.10144C25.5099 5.71891 23.3605 3.16696 20.7826 3.16379Z" fill="white"/>
</svg>
